<?xml version="1.0" encoding="UTF-8" standalone="yes"?>
<svg xmlns="http://www.w3.org/2000/svg" xmlns:xlink="http://www.w3.org/1999/xlink" width="50px" height="50px" viewBox="0 0 50 50" version="1.1" fill="#000000">
  <g id="surface135782">
    <path style=" stroke:none;fill-rule:nonzero;fill:#000000;fill-opacity:1;" d="M 14.582031 18.75 L 2.082031 18.75 L 2.082031 43.75 L 14.582031 43.75 C 16.886719 43.75 18.75 41.886719 18.75 39.582031 L 18.75 22.917969 C 18.75 20.613281 16.886719 18.75 14.582031 18.75 Z M 14.582031 39.582031 L 6.25 39.582031 L 6.25 22.917969 L 14.582031 22.917969 Z M 14.582031 39.582031 "/>
    <path style=" stroke:none;fill-rule:nonzero;fill:#000000;fill-opacity:1;" d="M 43.75 16.667969 L 30.519531 16.667969 L 32.46875 7.714844 C 32.773438 6.320312 32.339844 4.863281 31.320312 3.859375 L 29.515625 2.082031 L 15.800781 15.824219 C 15.019531 16.605469 14.582031 17.664062 14.582031 18.765625 L 14.582031 39.582031 C 14.582031 41.886719 16.449219 43.75 18.75 43.75 L 37.484375 43.75 C 39.148438 43.75 40.65625 42.757812 41.316406 41.226562 L 47.578125 26.640625 C 47.800781 26.121094 47.917969 25.5625 47.917969 24.996094 L 47.917969 20.832031 C 47.917969 18.53125 46.050781 16.667969 43.75 16.667969 Z M 43.75 24.996094 L 37.484375 39.582031 L 18.75 39.582031 L 18.75 18.765625 L 27.765625 9.734375 L 26.449219 15.777344 L 25.347656 20.832031 L 43.75 20.832031 Z M 43.75 24.996094 "/>
  </g>
</svg>